# xmcd
#
# Track frame offsets: 
#        225
#        27366
#        85714
#        156878
#
# Disc length: 2384 seconds
#
# Revision: 2
# Processed by: cddbd v1.5.2PL0 Copyright (c) Steve Scherf et al.
# Submitted via: ExactAudioCopy v0.99pb5
#
DISCID=24094d04
DTITLE=Tomasz Stanko - Witkacy Peyotl - Vol. 1
DYEAR=1988
DGENRE=Jazz
TTITLE0=My W.S. Friend
TTITLE1=Witkacy - Wizje cz. I
TTITLE2=Witkacy - Wizje cz. II
TTITLE3=Hej!
EXTD=YEAR: 1995
EXTT0=
EXTT1=
EXTT2=
EXTT3=
PLAYORDER=
